# xmcd
#
# Track frame offsets: 
#        150
#        22375
#        41395
#        60928
#        83043
#        105993
#        127293
#        150750
#        175203
#        192600
#        209418
#        233538
#        257218
#        274423
#
# Disc length: 4023 seconds
#
# Revision: 0
# Processed by: cddbd v1.5.2PL0 Copyright (c) Steve Scherf et al.
# Submitted via: ExactAudioCopy v1.0b3
#
DISCID=be0fb50e
DTITLE=Thanh Thuy - Nhac Yeu Cau
DYEAR=1990
DGENRE=
TTITLE0=Nua dem ngoai pho, Quan nua khuya
TTITLE1=Ru con tinh cu
TTITLE2=Tim nhau trong ky niem, Dem tam su
TTITLE3=Dem vi truong, Nhung tam hon hoang lanh
TTITLE4=Ai di ngoai suong gio, Pho buon
TTITLE5=Qua xom  nho, Mua nua dem
TTITLE6=Cho nguoi tinh nho
TTITLE7=Muon xa, Bao gio ta gap ta
TTITLE8=Bo vo
TTITLE9=Thu ca, Tinh dem pho cu
TTITLE10=Tram nho ngan thuong
TTITLE11=Do chieu, Pho dem
TTITLE12=Ngang trai
TTITLE13=Tieng coi trong suong dem
EXTD=
EXTT0=
EXTT1=
EXTT2=
EXTT3=
EXTT4=
EXTT5=
EXTT6=
EXTT7=
EXTT8=
EXTT9=
EXTT10=
EXTT11=
EXTT12=
EXTT13=
PLAYORDER=
